Coordinates
nRows=17
nColumns=24

# SIMM Motion File Header:
name Coordinates
datacolumns 24
datarows 17
otherdata 1
range 0.50500000000000000000 0.52100000000000002000
endheader
time	pelvis_tx	pelvis_ty	pelvis_tz	pelvis_tilt	pelvis_list	pelvis_rotation	hip_flexion_r	hip_adduction_r	hip_rotation_r	knee_angle_r	ankle_angle_r	subtalar_angle_r	mtp_angle_r	hip_flexion_l	hip_adduction_l	hip_rotation_l	knee_angle_l	ankle_angle_l	subtalar_angle_l	mtp_angle_l	lumbar_extension	lumbar_bending	lumbar_rotation
      0.50500000000000000000	      1.51811462713677910000	      0.94702460384922060000	     -0.30206246559777183000	     -2.41192801405344910000	      5.53334074579019040000	     -2.06611026465523520000	     13.39997628515260400000	     -6.07600450888013910000	     13.16269906855164600000	    -59.77087694658342800000	    -19.62792960979491900000	      0.00000000000000014508	     -0.00000000000000005408	      1.92329471489433490000	      9.47453912836373570000	      8.38696057745290520000	     -1.07018474378267640000	      3.14034505162135600000	      0.00000000000000593566	     -0.00000000000001107650	     -0.54345768806428973000	     -4.52683155425951170000	      0.66387029448096513000
      0.50600000000000001000	      1.51846484573865710000	      0.94703084697487938000	     -0.30215396601870914000	     -2.40625510935308950000	      5.52001349191908020000	     -2.06198288964376090000	     13.49761610533720100000	     -6.05827141486571200000	     13.18278117995713400000	    -59.82972652339413600000	    -19.35308211510768600000	      0.00000000000000014382	     -0.00000000000000006427	      1.89203072216077640000	      9.47062172026658370000	      8.39458051204776550000	     -1.07013834199328750000	      3.16493140523900340000	      0.00000000000000613521	     -0.00000000000001157469	     -0.55881169753191817000	     -4.50337405300774400000	      0.64527560549019614000
      0.50700000000000001000	      1.51881575281328800000	      0.94704040221047447000	     -0.30224599972178784000	     -2.39843035242216150000	      5.50817732981181420000	     -2.05787316453625820000	     13.59242797968499700000	     -6.04262548078500840000	     13.20268892849113700000	    -59.88519224560392500000	    -19.08728846972744400000	      0.00000000000000014285	     -0.00000000000000007229	      1.85797481380038580000	      9.46865102121596540000	      8.40120977484653690000	     -1.06877118805249370000	      3.18326290277334280000	      0.00000000000000632982	     -0.00000000000001208383	     -0.57649398989020817000	     -4.48169448185613370000	      0.62693597215591956000
      0.50800000000000001000	      1.51916759120006480000	      0.94705443589270011000	     -0.30233875622690048000	     -2.38769646374420530000	      5.49835825262030650000	     -2.05378650610906010000	     13.68341563501855200000	     -6.02980312265573380000	     13.22236046560417400000	    -59.93607498277497600000	    -18.83375912882637200000	      0.00000000000000014225	     -0.00000000000000007720	      1.82014434291295450000	      9.46931415153258800000	      8.40649985653707080000	     -1.06561839569653590000	      3.19313797525205570000	      0.00000000000000651789	     -0.00000000000001260810	     -0.59732356590815416000	     -4.46241991364975640000	      0.60894207191164240000
      0.50900000000000001000	      1.51951942958684170000	      0.94706846957492563000	     -0.30243151273201319000	     -2.37696257506624910000	      5.48853917542879980000	     -2.04969984768186200000	     13.77440329035210600000	     -6.01698076452646010000	     13.24203200271721100000	    -59.98695771994603400000	    -18.58022978792530100000	      0.00000000000000014164	     -0.00000000000000008210	      1.78231387202552320000	      9.46997728184921070000	      8.41178993822760470000	     -1.06246560334057790000	      3.20301304773076860000	      0.00000000000000670596	     -0.00000000000001313236	     -0.61815314192610027000	     -4.44314534544338000000	      0.59094817166736513000
      0.51000000000000001000	      1.51987230925296470000	      0.94708654707994233000	     -0.30252586197756581000	     -2.36383029782595950000	      5.48109112750322240000	     -2.04519145098740210000	     13.86166159727162200000	     -6.00758753644319570000	     13.26107509322195600000	    -60.03000008284625700000	    -18.34665582800339900000	      0.00000000000000013419	     -0.00000000000000006879	      1.74132471281410290000	      9.47391963733832480000	      8.41604865971634910000	     -1.05778772478805850000	      3.20561922376605680000	      0.00000000000000688559	     -0.00000000000001368211	     -0.64139920446701881000	     -4.42664481620587940000	      0.57361320778956648000
      0.51100000000000001000	      1.52022527660588810000	      0.94710496511786602000	     -0.30262034534881094000	     -2.35049605074880570000	      5.47384274547063750000	     -2.04064753944335650000	     13.94860585337276000000	     -5.99848307759726660000	     13.28006526183533300000	    -60.07238220280781600000	    -18.11476232349403400000	      0.00000000000000012616	     -0.00000000000000005393	      1.70006955843596090000	      9.47813813847936790000	      8.42022052970197520000	     -1.05298141775019640000	      3.20761328137653210000	      0.00000000000000706451	     -0.00000000000001423402	     -0.66484876088565825000	     -4.41037789056656230000	      0.55633373336520009000
      0.51200000000000001000	      1.52057830783625340000	      0.94712277659822774000	     -0.30271564222303965000	     -2.33775667450698780000	      5.46683746213607870000	     -2.03564331487347690000	     14.03574496517032500000	     -5.98984503730631520000	     13.29860975331654400000	    -60.11181384504574500000	    -17.88876313603560300000	      0.00000000000000011010	     -0.00000000000000002961	      1.65954775131017150000	      9.48285057291666260000	      8.42479389665031240000	     -1.04851381535294430000	      3.21152510159150540000	      0.00000000000000725063	     -0.00000000000001481317	     -0.68749022910600610000	     -4.39435982954680250000	      0.53931541378664238000
      0.51300000000000001000	      1.52093142643924590000	      0.94713975841906561000	     -0.30281205182018289000	     -2.32583097249017710000	      5.46016469324493680000	     -2.03000946648896590000	     14.12315060383113900000	     -5.98184497207433010000	     13.31654464020197700000	    -60.14720977476832800000	    -17.67082629349893000000	      0.00000000000000008308	      0.00000000000000000768	      1.62002902875631790000	      9.48823861753377780000	      8.42991643782366040000	     -1.04450949879790310000	      3.21806006940133840000	      0.00000000000000744661	     -0.00000000000001542961	     -0.70902638084515268000	     -4.37868216969385400000	      0.52265430615082609000
      0.51400000000000001000	      1.52128454504223880000	      0.94715674023990348000	     -0.30290846141732614000	     -2.31390527047336650000	      5.45349192435379490000	     -2.02437561810445480000	     14.21055624249195200000	     -5.97384490684234580000	     13.33447952708740800000	    -60.18260570449091800000	    -17.45288945096225700000	      0.00000000000000005606	      0.00000000000000004496	      1.58051030620246440000	      9.49362666215089310000	      8.43503897899701020000	     -1.04050518224286170000	      3.22459503721117140000	      0.00000000000000764259	     -0.00000000000001604605	     -0.73056253258429937000	     -4.36300450984090650000	      0.50599319851500979000
      0.51500000000000001000	      1.52163727028861580000	      0.94716971385561333000	     -0.30300632298615376000	     -2.30500575338629910000	      5.44616856245244120000	     -2.01756105463551670000	     14.30041455980514300000	     -5.96527838107419580000	     13.35132848437059000000	    -60.21325683687133100000	    -17.23984873731422600000	      0.00000000000000003031	      0.00000000000000010180	      1.54483156936431150000	      9.49859954260119470000	      8.44199213849700850000	     -1.03834726638693290000	      3.24192543450886770000	      0.00000000000000785976	     -0.00000000000001672178	     -0.74844006826941811000	     -4.34649796595693430000	      0.48980950169880483000
      0.51600000000000001000	      1.52198996241018050000	      0.94718234993780226000	     -0.30310430682644685000	     -2.29636107327026200000	      5.43879041369702950000	     -2.01064706239313870000	     14.39047941875844900000	     -5.95666415330151010000	     13.36808599482649400000	    -60.24350840682879500000	    -17.02722032981559900000	      0.00000000000000000467	      0.00000000000000016027	      1.50947620018256700000	      9.50353746181111880000	      8.44909945553870220000	     -1.03634483711638930000	      3.26016492183758590000	      0.00000000000000807872	     -0.00000000000001740250	     -0.76600950955349500000	     -4.32992162121785640000	      0.47366600795347341000
      0.51700000000000002000	      1.52234202905380900000	      0.94718988437200624000	     -0.30320319502771020000	     -2.29136117669063430000	      5.43004652227967810000	     -2.00253890363177470000	     14.48357983649654900000	     -5.94652417376380170000	     13.38369336344829500000	    -60.26929242775051400000	    -16.81350367019547700000	     -0.00000000000000000850	      0.00000000000000023363	      1.47874368420801060000	      9.50714994842867080000	      8.45839844477989010000	     -1.03657194289635110000	      3.29304338530610250000	      0.00000000000000828083	     -0.00000000000001803256	     -0.77923982049114893000	     -4.31175847834222200000	      0.45821819915700412000
      0.51800000000000002000	      1.52269409569743750000	      0.94719741880621022000	     -0.30330208322897351000	     -2.28636128011100670000	      5.42130263086232580000	     -1.99443074487041040000	     14.57668025423464700000	     -5.93638419422609330000	     13.39930073207009500000	    -60.29507644867222600000	    -16.59978701057535100000	     -0.00000000000000002166	      0.00000000000000030698	      1.44801116823345440000	      9.51076243504622450000	      8.46769743402107980000	     -1.03679904867631300000	      3.32592184877461920000	      0.00000000000000848293	     -0.00000000000001866261	     -0.79247013142880274000	     -4.29359533546658770000	      0.44277039036053484000
      0.51900000000000002000	      1.52304587968576930000	      0.94720280568582371000	     -0.30340086165340674000	     -2.28282354505602300000	      5.41166758289719410000	     -1.98587544596992900000	     14.67080235365645900000	     -5.92517961906095890000	     13.41440613451347700000	    -60.31846973944490000000	    -16.38292871942256600000	     -0.00000000000000003209	      0.00000000000000039072	      1.41910966556926480000	      9.51340405325542800000	      8.47787684776114330000	     -1.03788613813071430000	      3.36557592924782640000	      0.00000000000000866561	     -0.00000000000001925731	     -0.80394980989622300000	     -4.27448335328790740000	      0.42790406969435069000
      0.52000000000000002000	      1.52339738101880420000	      0.94720604501084660000	     -0.30349953030100979000	     -2.28074797152568020000	      5.40114137838428210000	     -1.97687300693033110000	     14.76594613476198100000	     -5.91291044826839940000	     13.42900957077844200000	    -60.33947230006855000000	    -16.16292879673712000000	     -0.00000000000000003976	      0.00000000000000048484	      1.39203917621543870000	      9.51507480305628840000	      8.48893668600008060000	     -1.03983321125955320000	      3.41200562672571370000	      0.00000000000000882887	     -0.00000000000001981667	     -0.81367885589341216000	     -4.25442253180618300000	      0.41361923715845067000
      0.52100000000000002000	      1.52374888235183930000	      0.94720928433586948000	     -0.30359819894861290000	     -2.27867239799533870000	      5.39061517387136920000	     -1.96787056789073290000	     14.86108991586750200000	     -5.90064127747583810000	     13.44361300704340700000	    -60.36047486069219300000	    -15.94292887405167000000	     -0.00000000000000004744	      0.00000000000000057897	      1.36496868686161350000	      9.51674555285714520000	      8.49999652423901790000	     -1.04178028438839250000	      3.45843532420360500000	      0.00000000000000899212	     -0.00000000000002037602	     -0.82340790189060031000	     -4.23436171032445770000	      0.39933440462255176000
